<svg width="214" height="28" viewBox="0 0 214 28" fill="none" xmlns="http://www.w3.org/2000/svg">
<path d="M14.212 27.702C11.4253 27.702 8.95533 27.1447 6.802 26.03C4.64866 24.89 2.97666 23.2813 1.786 21.204C0.595329 19.1013 -4.16487e-06 16.6567 -4.16487e-06 13.87C-4.16487e-06 11.0833 0.595329 8.65134 1.786 6.574C2.97666 4.47134 4.64866 2.85 6.802 1.71C8.95533 0.570002 11.4253 2.02656e-06 14.212 2.02656e-06C16.112 2.02656e-06 17.8093 0.202669 19.304 0.608003C20.7987 1.01334 22.154 1.65934 23.37 2.546V7.144C22.2553 6.18134 20.976 5.48467 19.532 5.054C18.088 4.62334 16.454 4.408 14.63 4.408C12.806 4.408 11.1467 4.80067 9.652 5.586C8.18266 6.346 7.01733 7.448 6.156 8.892C5.29466 10.3107 4.864 11.97 4.864 13.87C4.864 15.7953 5.26933 17.48 6.08 18.924C6.89066 20.3427 8.018 21.4447 9.462 22.23C10.906 22.99 12.5527 23.37 14.402 23.37C16.3527 23.37 17.9613 23.0407 19.228 22.382V16.416H14.744V12.578H24.054V24.966C21.698 26.79 18.4173 27.702 14.212 27.702ZM27.8498 0.570001H45.8238V4.56H32.6758V11.856H42.4418V15.846H32.6758V23.142H45.8238V27.132H27.8498V0.570001ZM49.2619 0.570001H60.3579C63.2966 0.570001 65.5639 1.292 67.1599 2.736C68.756 4.18 69.554 6.27 69.554 9.006C69.554 10.9567 69.0726 12.616 68.11 13.984C67.1473 15.352 65.7793 16.3273 64.0059 16.91L69.402 27.132H64.4619L59.3319 17.404H54.0879V27.132H49.2619V0.570001ZM59.4839 13.414C61.0546 13.414 62.3213 13.0467 63.2839 12.312C64.2466 11.5773 64.7279 10.4753 64.7279 9.006C64.7279 6.042 62.9799 4.56 59.4839 4.56H54.0879V13.414H59.4839ZM73.3459 0.570001H78.0579L86.9499 20.026L95.8419 0.570001H100.554V27.132H95.9939V9.88L88.0899 27.132H85.8099L77.9059 9.88V27.132H73.3459V0.570001ZM114.027 0.570001H118.701L129.303 27.132H124.401L121.969 21.014H110.721L108.327 27.132H103.387L114.027 0.570001ZM120.639 17.024L116.345 5.738L112.051 17.024H120.639ZM133.092 0.570001H137.652L150.078 19.076V0.570001H154.904V27.132H150.344L137.918 8.588V27.132H133.092V0.570001ZM172.815 27.702C170.155 27.702 167.748 27.132 165.595 25.992C163.467 24.8267 161.782 23.1927 160.541 21.09C159.325 18.9873 158.717 16.5807 158.717 13.87C158.717 11.1593 159.325 8.75267 160.541 6.65C161.782 4.54734 163.467 2.91334 165.595 1.748C167.748 0.582669 170.155 2.02656e-06 172.815 2.02656e-06C175.449 2.02656e-06 177.831 0.582669 179.959 1.748C182.112 2.91334 183.797 4.54734 185.013 6.65C186.254 8.75267 186.875 11.1593 186.875 13.87C186.875 16.5807 186.254 18.9873 185.013 21.09C183.797 23.1673 182.112 24.7887 179.959 25.954C177.831 27.1193 175.449 27.702 172.815 27.702ZM172.815 23.332C174.512 23.332 176.057 22.952 177.451 22.192C178.844 21.4067 179.946 20.3047 180.757 18.886C181.593 17.442 182.011 15.77 182.011 13.87C182.011 11.9953 181.605 10.3487 180.795 8.93C179.984 7.486 178.882 6.37134 177.489 5.586C176.095 4.80067 174.537 4.408 172.815 4.408C171.092 4.408 169.521 4.80067 168.103 5.586C166.709 6.37134 165.607 7.486 164.797 8.93C163.986 10.3487 163.581 11.9953 163.581 13.87C163.581 15.77 163.986 17.442 164.797 18.886C165.633 20.3047 166.747 21.4067 168.141 22.192C169.559 22.952 171.117 23.332 172.815 23.332ZM187.439 0.570001H192.569L200.397 20.672L208.263 0.570001H213.355L202.753 27.132H198.079L187.439 0.570001Z" fill="#313133"/>
</svg>
